<svg id="图层_1" data-name="图层 1" xmlns="http://www.w3.org/2000/svg" viewBox="0 0 800 800"><defs><style>.cls-1{fill:#ee6052;}</style></defs><path class="cls-1" d="M744.07,236.56H730.7q-165.8,0-331.57,0c-72.24.1-126.45,31.14-161.48,94.78-18.35,33.34-24.21,81.92-13.52,117.38h70.31c-6.88-27.31-7.58-53.47,1.31-79.8,14.85-43.95,56.49-76.51,102.39-76.69,121.72-.49,243.44-.17,365.17-.15a53.94,53.94,0,0,1,5.38.51C814.06,425.47,779,623.33,611.18,732.56c-147.83,96.21-331.81,71.78-439-14.44h13.49c75.43,0,150.87,1.08,226.27-.48,80.17-1.66,149.28-31.8,206.85-87.7,54.63-53.05,84.47-118.2,92-193.43,2.12-21.27.32-42.94.32-65H652.75c0,21.47,2.21,42.84-.38,63.6C640.19,532.89,588.63,602,497.9,641.69c-32.8,14.36-67.35,19-102.56,19.13-91.48.42-183,0-274.44.34-9.12,0-15.64-2.27-20.67-10C88.05,632.43,75.42,614,63.13,595.34c-2-3-3.11-6.47-5.47-11.5H71.35q163,0,326,0c73.05,0,127.49-32.12,161.66-96.36,18.17-34.15,22.72-71.36,15.4-109.57-.51-2.67-4.27-6.66-6.62-6.73-18.17-.56-36.36-.31-55.78-.31,5.88,23.7,7.62,46.08,2,68.61-11.41,45.61-52.34,81-99.36,85.5-10.37,1-20.82,1.61-31.24,1.62-112.39.11-224.78-.08-337.17.31-10.14,0-14-3.32-16.71-12.78C-34.75,292.55,111.24,69,331.41,30.06c105.35-18.65,202.31,2.81,290.75,62.87a25.59,25.59,0,0,1,8.83,9.35c-3.89,0-7.77,0-11.66,0-78.78.14-157.58-.75-236.33.72-76,1.42-142.72,28.94-198.5,80.21C120.61,241.94,87.44,315.6,84.67,402.48c-.41,13,.67,26,1.9,39,.26,2.85,3.92,7.52,6.26,7.68,11.9.81,23.87.41,35.82.43H140c0-16.88-.85-32.75.14-48.5C146,306.13,189.82,234.5,273.3,187.9c37.25-20.8,77.63-30,120.12-30.06,97.08-.11,194.16,0,291.24-.2,7.16,0,12,2,16,7.77,15.43,22.62,31,45.13,46.55,67.68ZM440.7,410.63c.17-21.88-16-39.36-36.7-39.72s-35.89,15.58-36.15,38.22c-.26,22.14,15.37,40.34,34.67,40.38C422.72,449.55,440.54,431.4,440.7,410.63Z"/><path d="M638,103.67c-96.11.06-279,3-267.36.54C183.46,130.71,71.23,285,90.59,448.65L17.42,450C-24.09,138.52,346.38-130.36,638,103.67Z"/><path d="M693.73,154.41c23.72,33.2,55.62,74.9,57.17,85.07h-343C282.35,228.32,197.13,345.07,224.13,448.76l-84.16.8c-10-129,56.94-275.6,233-292.36Z"/><path d="M294.44,448.76l108.08.75c-57.41-12.71-33-78.95,1.48-78.6l381.07,1c2-21.95-5.77-51-16.74-82.27l-381.39,2.09C309.82,303.61,273.65,366.33,294.44,448.76Z"/></svg>